<?xml version="1.0" encoding="UTF-8"?>
<svg width="32px" height="32px" viewBox="0 0 32 32" version="1.1" xmlns="http://www.w3.org/2000/svg" xmlns:xlink="http://www.w3.org/1999/xlink">
    <!-- Generator: Sketch 53.2 (72643) - https://sketchapp.com -->
    <title>Q</title>
    <desc>Created with Sketch.</desc>
    <g id="Q" stroke="none" stroke-width="1" fill="none" fill-rule="evenodd">
        <path d="M24.997344,27.1444444 L23.4264183,28.7153701 L20.7285243,26.017476 C19.2600503,27.1444444 17.4500707,27.7250039 15.5034889,27.7250039 C13.0787993,27.7250039 10.9273142,26.8370894 9.28808738,25.1978626 C7,22.9097752 7,20.5192362 7,15.362502 C7,10.2057677 7,7.81522866 9.28808738,5.52714128 C10.9273142,3.8879145 13.0787993,3 15.5034889,3 C17.9281785,3 20.0796637,3.8879145 21.7188904,5.52714128 C24.0069778,7.81522866 24.0069778,10.2057677 24.0069778,15.362502 C24.0069778,20.0069778 24.0069778,22.3975169 22.3336005,24.4807009 L24.997344,27.1444444 Z M21.4115354,15.362502 C21.4115354,10.2740688 21.2407826,8.63484205 19.7040075,7.06391639 C18.6453402,5.97109854 17.1085651,5.32223794 15.5034889,5.32223794 C13.8984127,5.32223794 12.3616376,5.97109854 11.3029703,7.06391639 C9.76619519,8.63484205 9.5954424,10.2740688 9.5954424,15.362502 C9.5954424,20.4509351 9.76619519,22.0901619 11.3029703,23.6610875 C12.3616376,24.7539054 13.8984127,25.402766 15.5034889,25.402766 C16.8012101,25.402766 17.9623291,24.9929593 18.9526953,24.241647 L15.879145,21.1680968 L17.4500707,19.5971711 L20.4211692,22.5682697 C21.3090837,21.1339462 21.4115354,19.2556655 21.4115354,15.362502 Z" stroke="#2775FF" stroke-width="0.4" fill="#2775FF" fill-rule="nonzero"></path>
    </g>
</svg>